# Blender 4.2.1 LTS
# www.blender.org
mtllib lamp_post.mtl
o Lamp_Post
v -4.736625 -0.608468 -5.001400
v -4.736625 6.020480 -5.001400
v -4.736625 -0.608468 -5.535334
v -4.736625 6.020480 -5.535334
v -4.132437 -0.608468 -5.001400
v -4.132437 6.020480 -5.001400
v -4.132437 -0.608468 -5.535334
v -4.132437 6.020480 -5.535334
v -4.736625 5.327339 -5.001400
v -4.736625 5.327339 -5.535334
v -4.132437 5.327339 -5.535334
v -4.132437 5.327339 -5.001400
v -0.406714 6.020480 -5.535334
v -0.406714 6.020480 -5.001400
v -0.406714 5.327339 -5.535334
v -0.406714 5.327339 -5.001400
v -0.986234 6.020480 -5.001400
v -0.986234 6.020480 -5.535334
v -0.986234 5.327339 -5.535334
v -0.986234 5.327339 -5.001400
v -0.406714 4.643752 -5.535334
v -0.406714 4.643752 -5.001400
v -0.986234 4.643752 -5.535334
v -0.986234 4.643752 -5.001400
vn -1.0000 -0.0000 -0.0000
vn -0.0000 -0.0000 -1.0000
vn -0.0000 1.0000 -0.0000
vn -0.0000 -0.0000 1.0000
vn -0.0000 -1.0000 -0.0000
vn 1.0000 -0.0000 -0.0000
vt 0.598859 0.000000
vt 0.625000 0.000000
vt 0.625000 0.250000
vt 0.598859 0.250000
vt 0.625000 0.500000
vt 0.598859 0.500000
vt 0.625000 0.750000
vt 0.598859 0.750000
vt 0.625000 1.000000
vt 0.598859 1.000000
vt 0.125000 0.500000
vt 0.375000 0.500000
vt 0.375000 0.750000
vt 0.125000 0.750000
vt 0.875000 0.500000
vt 0.875000 0.750000
vt 0.375000 1.000000
vt 0.375000 0.250000
vt 0.375000 0.000000
s 0
f 9/1/1 2/2/1 4/3/1 10/4/1
f 10/4/2 4/3/2 8/5/2 11/6/2
f 18/5/3 17/7/3 14/7/3 13/5/3
f 12/8/4 6/7/4 2/9/4 9/10/4
f 3/11/5 7/12/5 5/13/5 1/14/5
f 8/5/3 4/15/3 2/16/3 6/7/3
f 5/13/4 12/8/4 9/10/4 1/17/4
f 7/12/6 11/6/6 12/8/6 5/13/6
f 3/18/2 10/4/2 11/6/2 7/12/2
f 1/19/1 9/1/1 10/4/1 3/18/1
f 15/6/6 13/5/6 14/7/6 16/8/6
f 19/6/2 15/6/2 21/6/2 23/6/2
f 17/7/4 20/8/4 16/8/4 14/7/4
f 19/6/2 18/5/2 13/5/2 15/6/2
f 11/6/2 8/5/2 18/5/2 19/6/2
f 6/7/4 12/8/4 20/8/4 17/7/4
f 12/8/5 11/6/5 19/6/5 20/8/5
f 8/5/3 6/7/3 17/7/3 18/5/3
f 24/8/5 23/6/5 21/6/5 22/8/5
f 16/8/4 20/8/4 24/8/4 22/8/4
f 15/6/6 16/8/6 22/8/6 21/6/6
f 20/8/1 19/6/1 23/6/1 24/8/1
