# Blender 4.2.1 LTS
# www.blender.org
mtllib ground.mtl
o Ground
v -9.188648 -1.215145 8.828696
v 8.969584 -0.746232 9.108511
v -9.114968 -0.498103 -9.024439
v 9.026657 0.356835 -9.003673
v -7.526577 -1.277071 8.904074
v -5.877437 -1.555827 8.892865
v -4.231973 -1.822099 8.864060
v -2.556062 -1.897743 8.866364
v -0.889660 -1.730863 8.905729
v 0.728190 -1.328279 8.984892
v 2.363256 -1.041203 9.027382
v 4.017162 -0.935114 9.043108
v 5.663314 -1.095954 9.031115
v 7.336769 -1.141053 9.065038
v 7.437386 -0.354571 -9.082949
v 5.763429 -0.110619 -9.057114
v 4.123504 -0.276596 -9.082986
v 2.468608 -0.369797 -9.093274
v 0.822636 -0.593819 -9.100534
v -0.822101 -0.821859 -9.092071
v -2.485348 -0.904882 -9.086334
v -4.149639 -0.913707 -9.072877
v -5.813976 -0.867427 -9.041117
v -7.468204 -0.705504 -9.026593
v -9.033660 0.150069 -7.278784
v -9.058758 0.115543 -5.439695
v -9.027302 0.324819 -3.640078
v -8.998898 0.461276 -1.817333
v -8.955868 0.589276 0.007343
v -8.928570 0.635742 1.837165
v -8.873678 0.711094 3.676667
v -8.953175 0.311762 5.490683
v -9.087674 -0.449777 7.166665
v 8.994111 -0.748730 7.271663
v 8.968797 -1.135128 5.468865
v 8.982861 -1.049034 3.639865
v 9.029234 -0.789271 1.835444
v 9.058056 -0.609013 0.019562
v 9.074407 -0.452670 -1.795599
v 9.080709 -0.320477 -3.614450
v 9.088950 -0.259952 -5.428966
v 9.096166 -0.243506 -7.254187
v -7.449099 -0.700873 7.177118
v -7.362633 -0.126594 5.439408
v -7.349811 0.073132 3.627100
v -7.390186 0.028956 1.809693
v -7.399217 0.037658 -0.007205
v -7.418466 -0.029054 -1.821213
v -7.420754 -0.086400 -3.638036
v -7.421682 -0.143397 -5.451275
v -7.407750 -0.127428 -7.278852
v -5.846485 -1.170215 7.109591
v -5.752518 -0.499929 5.409127
v -5.751101 -0.351489 3.597046
v -5.791018 -0.408739 1.785953
v -5.775006 -0.284084 -0.022408
v -5.773057 -0.246889 -1.833273
v -5.779147 -0.318718 -3.645670
v -5.776655 -0.325769 -5.461881
v -5.768770 -0.338708 -7.283660
v -4.203111 -1.438709 7.087372
v -4.128805 -0.735489 5.395202
v -4.134738 -0.634703 3.579525
v -4.157047 -0.677992 1.769095
v -4.139585 -0.498201 -0.032615
v -4.128947 -0.380203 -1.842399
v -4.136478 -0.510037 -3.650859
v -4.143051 -0.603580 -5.465356
v -4.133643 -0.565183 -7.284103
v -2.539710 -1.453293 7.115711
v -2.499259 -0.887784 5.384895
v -2.497518 -0.806366 3.573772
v -2.500148 -0.702404 1.770517
v -2.490003 -0.578339 -0.034883
v -2.482591 -0.503154 -1.845081
v -2.487008 -0.630086 -3.654140
v -2.485413 -0.659578 -5.470433
v -2.484123 -0.667762 -7.286079
v -0.883055 -1.318929 7.145399
v -0.862439 -0.796321 5.401574
v -0.855997 -0.582978 3.591522
v -0.848225 -0.763345 1.773236
v -0.839991 -0.559486 -0.029702
v -0.832907 -0.469052 -1.844498
v -0.832079 -0.654959 -3.654537
v -0.834211 -0.560125 -5.471717
v -0.829947 -0.669021 -7.285646
v 0.718397 -0.850144 7.231312
v 0.776222 -0.711140 5.411396
v 0.781018 -0.490549 3.600842
v 0.799617 -0.610672 1.789153
v 0.809722 -0.609436 -0.027581
v 0.815975 -0.441196 -1.839823
v 0.815867 -0.484562 -3.654314
v 0.818554 -0.515463 -5.469057
v 0.819823 -0.549137 -7.285119
v 2.354162 -0.573984 7.260353
v 2.405283 -0.475552 5.437041
v 2.430916 -0.455395 3.617856
v 2.446314 -0.535734 1.800601
v 2.458840 -0.520104 -0.015596
v 2.465899 -0.556470 -1.833817
v 2.469764 -0.472419 -3.648818
v 2.471942 -0.463272 -5.464293
v 2.473723 -0.518133 -7.279955
v 4.017316 -0.468225 7.272970
v 4.054123 -0.455275 5.448374
v 4.076162 -0.400264 3.628779
v 4.095746 -0.472301 1.810476
v 4.108212 -0.500116 -0.007475
v 4.116909 -0.550982 -1.824992
v 4.120794 -0.551996 -3.642971
v 4.125780 -0.495173 -5.456290
v 4.129443 -0.573228 -7.275296
v 5.675352 -0.565937 7.270968
v 5.698748 -0.614629 5.446266
v 5.731049 -0.387509 3.637150
v 5.744214 -0.415792 1.817462
v 5.757793 -0.445769 0.000273
v 5.765624 -0.436288 -1.818377
v 5.774076 -0.508488 -3.633507
v 5.777344 -0.498335 -5.450320
v 5.774554 -0.443480 -7.264462
v 7.327081 -0.771186 7.268212
v 7.317964 -0.941632 5.443286
v 7.366287 -0.696357 3.639373
v 7.398522 -0.475932 1.829352
v 7.411273 -0.400490 0.009834
v 7.416856 -0.416151 -1.809893
v 7.424582 -0.510758 -3.629517
v 7.437390 -0.591646 -5.440182
v 7.436752 -0.572397 -7.273479
vn -0.3036 0.9273 0.2190
vn 0.1380 0.9328 -0.3330
vn 0.1056 0.9473 -0.3023
vn 0.0776 0.9675 -0.2407
vn 0.0272 0.9866 -0.1611
vn -0.0247 0.9939 -0.1075
vn -0.1050 0.9930 -0.0545
vn -0.0771 0.9966 0.0285
vn -0.0120 0.9925 0.1220
vn -0.0902 0.9810 0.1719
vn 0.1114 0.9824 0.1499
vn 0.0705 0.9670 0.2447
vn 0.1602 0.9853 -0.0585
vn 0.1901 0.9729 0.1314
vn 0.1111 0.9923 0.0539
vn 0.0044 0.9999 0.0125
vn -0.0198 0.9998 -0.0018
vn -0.0052 0.9989 -0.0459
vn 0.0289 0.9994 -0.0194
vn 0.0667 0.9976 0.0202
vn 0.0762 0.9595 0.2712
vn 0.0776 0.9969 -0.0085
vn 0.0441 0.9960 0.0781
vn -0.0208 0.9994 -0.0277
vn -0.0335 0.9993 -0.0161
vn -0.0511 0.9986 -0.0116
vn -0.0477 0.9987 -0.0203
vn -0.0123 0.9998 0.0184
vn -0.0383 0.9992 -0.0064
vn -0.0638 0.9648 0.2550
vn -0.0382 0.9988 0.0296
vn -0.0230 0.9995 0.0203
vn -0.0357 0.9985 -0.0422
vn -0.0253 0.9997 -0.0035
vn -0.0076 0.9997 -0.0240
vn 0.0223 0.9995 0.0229
vn 0.0336 0.9993 0.0182
vn 0.0264 0.9990 -0.0365
vn -0.1695 0.9516 0.2564
vn -0.1556 0.9860 0.0596
vn -0.0830 0.9944 0.0653
vn -0.0328 0.9979 -0.0554
vn -0.0498 0.9987 0.0043
vn 0.0077 0.9993 0.0363
vn 0.0312 0.9995 0.0112
vn -0.0194 0.9998 -0.0060
vn -0.0251 0.9994 -0.0244
vn -0.2651 0.9346 0.2370
vn -0.1709 0.9694 0.1762
vn -0.0545 0.9914 0.1187
vn -0.0735 0.9939 -0.0828
vn -0.0314 0.9979 0.0564
vn 0.0065 0.9974 0.0712
vn -0.0598 0.9962 -0.0630
vn -0.0650 0.9977 0.0176
vn -0.0497 0.9980 -0.0393
vn -0.0926 0.9675 0.2354
vn -0.0695 0.9523 0.2970
vn -0.0961 0.9921 0.0805
vn -0.0491 0.9986 -0.0211
vn 0.0125 0.9958 0.0906
vn -0.0161 0.9988 0.0456
vn -0.0028 0.9963 -0.0861
vn -0.0225 0.9996 0.0180
vn -0.0297 0.9990 -0.0323
vn 0.0242 0.9732 0.2287
vn 0.0455 0.9362 0.3485
vn 0.0988 0.9939 0.0498
vn 0.0594 0.9981 0.0163
vn 0.0315 0.9960 0.0841
vn 0.0615 0.9967 0.0535
vn 0.0732 0.9948 -0.0709
vn 0.0530 0.9980 -0.0339
vn 0.0479 0.9988 0.0084
vn 0.1601 0.9643 0.2110
vn 0.1453 0.9146 0.3775
vn 0.1584 0.9851 0.0675
vn 0.1672 0.9855 -0.0302
vn 0.1464 0.9856 0.0845
vn 0.1055 0.9935 0.0430
vn 0.0979 0.9936 -0.0557
vn 0.1416 0.9895 -0.0276
vn 0.1525 0.9883 0.0076
vn 0.2223 0.9385 0.2640
vn 0.2482 0.9066 0.3412
vn 0.2419 0.9658 0.0937
vn 0.2597 0.9651 -0.0327
vn 0.2296 0.9726 0.0362
vn 0.1627 0.9866 -0.0088
vn 0.1354 0.9902 -0.0356
vn 0.1251 0.9920 -0.0175
vn 0.1190 0.9929 0.0015
vn 0.0781 0.9255 0.3705
vn 0.1986 0.9083 0.3683
vn 0.3270 0.9310 0.1621
vn 0.3754 0.9260 -0.0400
vn 0.3503 0.9365 -0.0132
vn 0.3144 0.9476 -0.0561
vn 0.2718 0.9609 -0.0535
vn 0.2016 0.9767 -0.0738
vn 0.1623 0.9866 0.0153
vn -0.1262 0.9870 0.0993
vn 0.0522 0.9870 -0.1520
vn 0.1634 0.9822 0.0924
vn 0.1989 0.9709 0.1333
vn 0.1565 0.9851 0.0711
vn 0.0736 0.9965 0.0390
vn -0.0464 0.9989 0.0101
vn -0.1558 0.9878 -0.0065
vn -0.1957 0.9806 0.0092
vt 0.909091 0.900000
vt 1.000000 0.900000
vt 1.000000 1.000000
vt 0.909091 1.000000
vt 0.000000 0.900000
vt 0.090909 0.900000
vt 0.090909 1.000000
vt 0.000000 1.000000
vt 0.181818 0.900000
vt 0.181818 1.000000
vt 0.272727 0.900000
vt 0.272727 1.000000
vt 0.363636 0.900000
vt 0.363636 1.000000
vt 0.454545 0.900000
vt 0.454545 1.000000
vt 0.545455 0.900000
vt 0.545455 1.000000
vt 0.636364 0.900000
vt 0.636364 1.000000
vt 0.727273 0.900000
vt 0.727273 1.000000
vt 0.818182 0.900000
vt 0.818182 1.000000
vt 0.818182 0.000000
vt 0.909091 0.000000
vt 0.909091 0.100000
vt 0.818182 0.100000
vt 0.909091 0.200000
vt 0.818182 0.200000
vt 0.909091 0.300000
vt 0.818182 0.300000
vt 0.909091 0.400000
vt 0.818182 0.400000
vt 0.909091 0.500000
vt 0.818182 0.500000
vt 0.909091 0.600000
vt 0.818182 0.600000
vt 0.909091 0.700000
vt 0.818182 0.700000
vt 0.909091 0.800000
vt 0.818182 0.800000
vt 0.727273 0.000000
vt 0.727273 0.100000
vt 0.727273 0.200000
vt 0.727273 0.300000
vt 0.727273 0.400000
vt 0.727273 0.500000
vt 0.727273 0.600000
vt 0.727273 0.700000
vt 0.727273 0.800000
vt 0.636364 0.000000
vt 0.636364 0.100000
vt 0.636364 0.200000
vt 0.636364 0.300000
vt 0.636364 0.400000
vt 0.636364 0.500000
vt 0.636364 0.600000
vt 0.636364 0.700000
vt 0.636364 0.800000
vt 0.545455 0.000000
vt 0.545455 0.100000
vt 0.545455 0.200000
vt 0.545455 0.300000
vt 0.545455 0.400000
vt 0.545455 0.500000
vt 0.545455 0.600000
vt 0.545455 0.700000
vt 0.545455 0.800000
vt 0.454545 0.000000
vt 0.454545 0.100000
vt 0.454545 0.200000
vt 0.454545 0.300000
vt 0.454546 0.400000
vt 0.454545 0.500000
vt 0.454545 0.600000
vt 0.454545 0.700000
vt 0.454545 0.800000
vt 0.363636 0.000000
vt 0.363636 0.100000
vt 0.363636 0.200000
vt 0.363636 0.300000
vt 0.363636 0.400000
vt 0.363636 0.500000
vt 0.363636 0.600000
vt 0.363636 0.700000
vt 0.363636 0.800000
vt 0.272727 0.000000
vt 0.272727 0.100000
vt 0.272727 0.200000
vt 0.272727 0.300000
vt 0.272727 0.400000
vt 0.272727 0.500000
vt 0.272727 0.600000
vt 0.272727 0.700000
vt 0.272727 0.800000
vt 0.181818 0.000000
vt 0.181818 0.100000
vt 0.181818 0.200000
vt 0.181818 0.300000
vt 0.181818 0.400000
vt 0.181818 0.500000
vt 0.181818 0.600000
vt 0.181818 0.700000
vt 0.181818 0.800000
vt 0.090909 0.000000
vt 0.090909 0.100000
vt 0.090909 0.200000
vt 0.090909 0.300000
vt 0.090909 0.400000
vt 0.090909 0.500000
vt 0.090909 0.600000
vt 0.090909 0.700000
vt 0.090909 0.800000
vt 0.000000 0.000000
vt 0.000000 0.100000
vt 0.000000 0.200000
vt 0.000000 0.300000
vt 0.000000 0.400000
vt 0.000000 0.500000
vt 0.000000 0.600000
vt 0.000000 0.700000
vt 0.000000 0.800000
vt 1.000000 0.000000
vt 1.000000 0.100000
vt 1.000000 0.200000
vt 1.000000 0.300000
vt 1.000000 0.400000
vt 1.000000 0.500000
vt 1.000000 0.600000
vt 1.000000 0.700000
vt 1.000000 0.800000
s 0
f 132/1/1 42/2/1 4/3/1 15/4/1
f 25/5/2 51/6/2 24/7/2 3/8/2
f 51/6/3 60/9/3 23/10/3 24/7/3
f 60/9/4 69/11/4 22/12/4 23/10/4
f 69/11/5 78/13/5 21/14/5 22/12/5
f 78/13/6 87/15/6 20/16/6 21/14/6
f 87/15/7 96/17/7 19/18/7 20/16/7
f 96/17/8 105/19/8 18/20/8 19/18/8
f 105/19/9 114/21/9 17/22/9 18/20/9
f 114/21/10 123/23/10 16/24/10 17/22/10
f 123/23/11 132/1/11 15/4/11 16/24/11
f 13/25/12 14/26/12 124/27/12 115/28/12
f 115/28/13 124/27/13 125/29/13 116/30/13
f 116/30/14 125/29/14 126/31/14 117/32/14
f 117/32/15 126/31/15 127/33/15 118/34/15
f 118/34/16 127/33/16 128/35/16 119/36/16
f 119/36/17 128/35/17 129/37/17 120/38/17
f 120/38/18 129/37/18 130/39/18 121/40/18
f 121/40/19 130/39/19 131/41/19 122/42/19
f 122/42/20 131/41/20 132/1/20 123/23/20
f 12/43/21 13/25/21 115/28/21 106/44/21
f 106/44/22 115/28/22 116/30/22 107/45/22
f 107/45/23 116/30/23 117/32/23 108/46/23
f 108/46/24 117/32/24 118/34/24 109/47/24
f 109/47/25 118/34/25 119/36/25 110/48/25
f 110/48/26 119/36/26 120/38/26 111/49/26
f 111/49/27 120/38/27 121/40/27 112/50/27
f 112/50/28 121/40/28 122/42/28 113/51/28
f 113/51/29 122/42/29 123/23/29 114/21/29
f 11/52/30 12/43/30 106/44/30 97/53/30
f 97/53/31 106/44/31 107/45/31 98/54/31
f 98/54/32 107/45/32 108/46/32 99/55/32
f 99/55/33 108/46/33 109/47/33 100/56/33
f 100/56/34 109/47/34 110/48/34 101/57/34
f 101/57/35 110/48/35 111/49/35 102/58/35
f 102/58/36 111/49/36 112/50/36 103/59/36
f 103/59/37 112/50/37 113/51/37 104/60/37
f 104/60/38 113/51/38 114/21/38 105/19/38
f 10/61/39 11/52/39 97/53/39 88/62/39
f 88/62/40 97/53/40 98/54/40 89/63/40
f 89/63/41 98/54/41 99/55/41 90/64/41
f 90/64/42 99/55/42 100/56/42 91/65/42
f 91/65/43 100/56/43 101/57/43 92/66/43
f 92/66/44 101/57/44 102/58/44 93/67/44
f 93/67/45 102/58/45 103/59/45 94/68/45
f 94/68/46 103/59/46 104/60/46 95/69/46
f 95/69/47 104/60/47 105/19/47 96/17/47
f 9/70/48 10/61/48 88/62/48 79/71/48
f 79/71/49 88/62/49 89/63/49 80/72/49
f 80/72/50 89/63/50 90/64/50 81/73/50
f 81/73/51 90/64/51 91/65/51 82/74/51
f 82/74/52 91/65/52 92/66/52 83/75/52
f 83/75/53 92/66/53 93/67/53 84/76/53
f 84/76/54 93/67/54 94/68/54 85/77/54
f 85/77/55 94/68/55 95/69/55 86/78/55
f 86/78/56 95/69/56 96/17/56 87/15/56
f 8/79/57 9/70/57 79/71/57 70/80/57
f 70/80/58 79/71/58 80/72/58 71/81/58
f 71/81/59 80/72/59 81/73/59 72/82/59
f 72/82/60 81/73/60 82/74/60 73/83/60
f 73/83/61 82/74/61 83/75/61 74/84/61
f 74/84/62 83/75/62 84/76/62 75/85/62
f 75/85/63 84/76/63 85/77/63 76/86/63
f 76/86/64 85/77/64 86/78/64 77/87/64
f 77/87/65 86/78/65 87/15/65 78/13/65
f 7/88/66 8/79/66 70/80/66 61/89/66
f 61/89/67 70/80/67 71/81/67 62/90/67
f 62/90/68 71/81/68 72/82/68 63/91/68
f 63/91/69 72/82/69 73/83/69 64/92/69
f 64/92/70 73/83/70 74/84/70 65/93/70
f 65/93/71 74/84/71 75/85/71 66/94/71
f 66/94/72 75/85/72 76/86/72 67/95/72
f 67/95/73 76/86/73 77/87/73 68/96/73
f 68/96/74 77/87/74 78/13/74 69/11/74
f 6/97/75 7/88/75 61/89/75 52/98/75
f 52/98/76 61/89/76 62/90/76 53/99/76
f 53/99/77 62/90/77 63/91/77 54/100/77
f 54/100/78 63/91/78 64/92/78 55/101/78
f 55/101/79 64/92/79 65/93/79 56/102/79
f 56/102/80 65/93/80 66/94/80 57/103/80
f 57/103/81 66/94/81 67/95/81 58/104/81
f 58/104/82 67/95/82 68/96/82 59/105/82
f 59/105/83 68/96/83 69/11/83 60/9/83
f 5/106/84 6/97/84 52/98/84 43/107/84
f 43/107/85 52/98/85 53/99/85 44/108/85
f 44/108/86 53/99/86 54/100/86 45/109/86
f 45/109/87 54/100/87 55/101/87 46/110/87
f 46/110/88 55/101/88 56/102/88 47/111/88
f 47/111/89 56/102/89 57/103/89 48/112/89
f 48/112/90 57/103/90 58/104/90 49/113/90
f 49/113/91 58/104/91 59/105/91 50/114/91
f 50/114/92 59/105/92 60/9/92 51/6/92
f 1/115/93 5/106/93 43/107/93 33/116/93
f 33/116/94 43/107/94 44/108/94 32/117/94
f 32/117/95 44/108/95 45/109/95 31/118/95
f 31/118/96 45/109/96 46/110/96 30/119/96
f 30/119/97 46/110/97 47/111/97 29/120/97
f 29/120/98 47/111/98 48/112/98 28/121/98
f 28/121/99 48/112/99 49/113/99 27/122/99
f 27/122/100 49/113/100 50/114/100 26/123/100
f 26/123/101 50/114/101 51/6/101 25/5/101
f 14/26/102 2/124/102 34/125/102 124/27/102
f 124/27/103 34/125/103 35/126/103 125/29/103
f 125/29/104 35/126/104 36/127/104 126/31/104
f 126/31/105 36/127/105 37/128/105 127/33/105
f 127/33/106 37/128/106 38/129/106 128/35/106
f 128/35/107 38/129/107 39/130/107 129/37/107
f 129/37/108 39/130/108 40/131/108 130/39/108
f 130/39/109 40/131/109 41/132/109 131/41/109
f 131/41/110 41/132/110 42/2/110 132/1/110
